<?xml version="1.0" standalone="no"?>
<!DOCTYPE svg PUBLIC "-//W3C//DTD SVG 20010904//EN"
 "http://www.w3.org/TR/2001/REC-SVG-20010904/DTD/svg10.dtd">
<svg version="1.0" xmlns="http://www.w3.org/2000/svg"
 width="500.000000pt" height="500.000000pt" viewBox="0 0 500.000000 500.000000"
 preserveAspectRatio="xMidYMid meet">
<metadata>
Created by potrace 1.11, written by Peter Selinger 2001-2013
</metadata>
<g transform="translate(0.000000,500.000000) scale(0.100000,-0.100000)"
fill="#000000" stroke="none">
<path d="M3683 3808 c0 -876 -4 -1111 -17 -1208 -9 -62 -39 -160 -66 -216 -27
-55 -125 -164 -147 -164 -5 0 -9 313 -9 696 1 383 -2 698 -6 700 -6 4 -276 5
-715 4 l-102 0 5 -741 5 -741 -23 7 c-134 40 -212 123 -242 255 -23 102 -28
187 -28 452 l1 247 -362 -4 c-199 -2 -376 -4 -394 -4 l-32 -1 4 -247 c2 -137
6 -268 10 -293 33 -242 63 -356 129 -490 120 -242 331 -411 619 -494 48 -14
117 -31 152 -37 62 -11 64 -12 51 -31 -46 -65 -167 -124 -306 -148 -137 -25
-423 -12 -587 25 -225 52 -329 169 -351 395 -4 41 -7 474 -6 963 l0 887 -401
0 -402 0 3 -862 c2 -475 5 -881 8 -903 19 -175 42 -285 83 -401 86 -241 260
-423 500 -524 71 -30 214 -74 273 -84 90 -16 243 -35 320 -41 161 -13 484 -7
621 10 19 3 56 7 84 11 155 18 379 81 506 144 219 106 379 267 466 466 30 70
26 67 133 84 411 63 707 245 864 531 83 151 130 316 152 539 4 36 7 548 8
1138 l1 1072 -400 0 -401 0 -1 -992z"/>
<path d="M2151 490 c-22 -51 -30 -139 -19 -192 12 -53 40 -98 60 -98 15 0 18
4 13 18 -22 51 -35 111 -35 155 0 54 18 127 31 127 5 0 6 -6 3 -14 -4 -11 4
-16 28 -18 l33 -3 0 -105 c0 -98 1 -105 20 -105 19 0 20 8 23 109 l3 108 29
-5 c24 -5 29 -3 33 16 2 12 5 -35 6 -104 1 -124 1 -126 24 -124 19 1 22 8 24
46 0 24 2 50 2 57 1 7 15 12 36 12 21 0 36 -5 36 -12 1 -7 3 -29 4 -48 1 -19
3 -40 4 -47 1 -7 17 -11 44 -10 38 2 43 5 53 37 9 29 17 36 42 38 28 3 32 0
43 -36 11 -40 12 -40 58 -38 l46 2 3 131 c3 122 1 131 -15 128 -10 -2 -21 -4
-24 -4 -4 -1 -7 -43 -7 -93 0 -108 -2 -157 -7 -143 -2 6 -19 62 -39 126 -32
102 -39 116 -58 115 -22 -1 -23 -2 -76 -176 l-21 -65 0 121 c-1 119 -1 121
-23 120 -21 -1 -23 -6 -22 -48 0 -43 -1 -47 -28 -50 -41 -6 -53 6 -53 54 l0
43 -107 0 c-80 0 -108 3 -108 13 0 6 -8 12 -19 12 -13 0 -25 -15 -40 -50z
m507 -88 c8 -24 7 -28 -8 -29 -12 -1 -17 4 -15 15 2 9 4 23 4 30 1 20 8 14 19
-16z"/>
<path d="M3530 532 c0 -5 7 -29 16 -53 23 -64 21 -173 -5 -231 -20 -47 -20
-48 -1 -48 31 0 61 71 66 154 4 58 1 81 -18 126 -14 32 -30 56 -41 58 -9 2
-17 -1 -17 -6z"/>
<path d="M100 419 c0 -143 24 -180 106 -165 51 10 64 44 64 164 0 96 -1 99
-22 98 -22 -1 -23 -5 -23 -99 -1 -102 -7 -116 -47 -117 -27 0 -32 18 -33 119
0 89 -1 94 -23 97 -22 4 -22 2 -22 -97z"/>
<path d="M290 384 c0 -133 0 -134 23 -130 20 3 22 9 23 62 1 32 2 66 3 74 1 8
19 -19 40 -60 27 -53 44 -75 57 -75 17 0 19 11 22 133 2 127 2 132 -18 132
-21 0 -22 -3 -23 -98 0 -29 -3 -50 -6 -46 -3 3 -22 36 -42 72 -26 49 -42 67
-57 68 -22 1 -22 -2 -22 -132z"/>
<path d="M489 488 c-1 -38 0 -182 0 -215 1 -36 41 -31 42 5 3 88 1 213 -4 226
-12 30 -37 18 -38 -16z"/>
<path d="M582 485 c-40 -49 -44 -134 -10 -185 44 -65 112 -65 156 0 20 30 23
44 20 99 -4 57 -8 67 -36 92 -47 42 -92 40 -130 -6z m95 -23 c44 -28 34 -146
-14 -158 -53 -14 -84 65 -55 139 12 27 42 36 69 19z"/>
<path d="M764 387 c1 -125 2 -132 21 -132 18 0 21 8 25 73 l5 72 38 -73 c26
-50 44 -73 57 -74 24 -2 22 -13 24 122 2 113 -4 145 -29 145 -11 0 -15 -19
-17 -77 l-3 -78 -34 65 c-39 76 -44 83 -69 87 -17 2 -19 -7 -18 -130z"/>
<path d="M1116 512 c-2 -4 -5 -39 -4 -78 0 -123 -1 -134 -17 -134 -13 0 -20
18 -16 43 1 10 -21 9 -38 -2 -30 -19 11 -91 52 -91 49 1 60 23 64 127 2 54 1
108 -2 121 -5 21 -29 30 -39 14z"/>
<path d="M1347 512 c-4 -6 -2 -236 2 -254 0 -4 10 -6 21 -5 17 1 20 8 20 49 0
43 2 48 23 49 65 2 97 29 97 84 0 55 -26 76 -97 80 -34 3 -64 1 -66 -3z m108
-77 c0 -27 -3 -30 -32 -31 -31 -1 -33 1 -33 33 0 33 2 34 33 31 28 -3 32 -6
32 -33z"/>
<path d="M1520 387 l0 -134 68 1 c65 1 67 2 67 26 0 23 -3 25 -42 22 -24 -2
-44 1 -44 5 -1 4 -2 53 -3 107 -1 95 -2 99 -23 102 -23 4 -23 3 -23 -129z"/>
<path d="M1671 410 c1 -100 3 -112 25 -135 36 -39 100 -32 126 13 12 20 16 52
15 127 -2 93 -3 100 -22 100 -19 0 -20 -7 -21 -99 -2 -96 -8 -116 -39 -116
-32 0 -39 20 -40 116 0 93 -1 97 -23 101 -23 3 -23 2 -21 -107z"/>
<path d="M1882 497 c-43 -46 -13 -120 53 -133 35 -6 48 -23 39 -49 -11 -28
-61 -14 -74 21 -7 17 -14 21 -30 17 -49 -13 13 -103 70 -103 70 0 109 92 59
139 -12 11 -33 22 -47 26 -36 9 -52 23 -45 41 8 22 54 18 60 -5 6 -23 25 -32
43 -21 9 6 10 15 3 36 -18 54 -93 71 -131 31z"/>
<path d="M2825 508 c-3 -8 -4 -68 -3 -134 l3 -119 84 0 84 0 12 35 c10 29 17
36 43 38 28 3 32 0 41 -35 10 -38 12 -39 53 -38 l43 1 5 74 5 75 40 -75 c29
-55 45 -75 60 -75 19 0 20 7 21 125 1 82 -2 128 -10 132 -26 18 -34 7 -34 -49
0 -101 -1 -101 -39 -28 -19 39 -36 71 -37 72 0 1 -12 4 -26 8 l-25 6 1 -116
c1 -64 -2 -113 -5 -108 -4 4 -22 55 -40 113 -30 94 -36 106 -57 108 -13 1 -24
-3 -24 -9 0 -6 -14 -55 -30 -108 l-30 -97 -45 -1 -44 -1 -3 106 c-3 92 -5 107
-21 110 -9 2 -19 -3 -22 -10z m235 -119 c0 -9 -7 -16 -15 -16 -10 0 -14 6 -10
14 3 8 5 22 5 31 0 15 2 15 10 2 5 -8 10 -22 10 -31z"/>
<path d="M3340 385 l0 -134 63 4 c51 4 66 9 85 30 12 14 23 34 23 43 11 148
-9 182 -111 188 l-60 3 0 -134z m110 65 c14 -14 20 -33 20 -65 0 -52 -24 -83
-61 -81 -23 1 -24 4 -25 71 0 39 2 76 4 83 6 18 40 14 62 -8z"/>
<path d="M3747 500 c-28 -22 -46 -70 -42 -111 1 -13 3 -37 4 -52 1 -39 51 -87
89 -87 58 0 121 87 76 104 -21 8 -34 -1 -34 -24 0 -27 -45 -38 -68 -16 -22 19
-28 88 -11 128 15 38 61 40 77 3 12 -27 19 -30 40 -17 17 12 1 55 -30 76 -31
22 -70 20 -101 -4z"/>
<path d="M3950 507 c-75 -38 -70 -211 7 -246 40 -18 70 -13 102 20 31 31 34
38 34 94 1 67 -4 84 -32 114 -32 34 -68 40 -111 18z m84 -59 c9 -12 16 -41 16
-63 0 -81 -63 -116 -96 -53 -18 34 -15 98 6 123 18 22 57 18 74 -7z"/>
<path d="M4349 493 c-1 -34 -1 -202 0 -224 1 -12 14 -15 68 -15 65 1 68 2 68
26 0 23 -3 25 -46 23 l-46 -3 -1 58 c-2 170 -1 162 -22 162 -15 0 -20 -7 -21
-27z"/>
<path d="M4480 493 c0 -19 5 -23 30 -23 17 0 31 -6 31 -12 1 -7 2 -51 4 -98 3
-112 2 -109 25 -107 19 1 20 8 20 110 l0 109 30 -4 c21 -3 30 0 34 11 2 9 4
-24 4 -74 0 -158 -2 -150 34 -152 88 -6 136 33 139 114 3 68 -1 88 -24 116
-20 25 -30 29 -90 32 -47 3 -65 0 -61 -7 5 -7 2 -8 -7 -2 -8 5 -49 9 -91 10
-75 0 -78 -1 -78 -23z m291 -39 c7 -9 14 -39 15 -66 3 -57 -18 -86 -57 -84
-23 1 -24 4 -26 81 l-1 81 28 2 c15 1 33 -5 41 -14z"/>
<path d="M1182 283 c2 -21 9 -28 26 -29 18 -1 22 4 22 27 0 24 -4 29 -26 29
-22 0 -25 -4 -22 -27z"/>
<path d="M4117 303 c-13 -12 -7 -41 9 -47 22 -9 34 1 34 30 0 17 -6 24 -18 24
-10 0 -22 -3 -25 -7z"/>
<path d="M4186 294 c-4 -9 -2 -22 4 -29 7 -9 8 -15 1 -19 -13 -9 -2 -36 14
-36 16 0 32 47 27 78 -4 26 -37 30 -46 6z"/>
<path d="M4854 295 c-9 -23 4 -47 23 -43 11 2 19 14 21 31 3 22 -1 27 -18 27
-11 0 -23 -7 -26 -15z"/>
</g>
</svg>
